<svg xmlns="http://www.w3.org/2000/svg" width="800" height="526" viewBox="0 0 800 526">
<g>
<path d="M 120.75 509.02 C109.71,507.03 105.00,502.00 105.00,492.20 C105.00,485.38 104.00,483.62 98.95,481.60 C95.28,480.13 94.91,479.67 95.39,477.23 C97.07,468.66 98.43,439.37 98.46,411.00 C98.50,378.98 97.73,365.00 95.92,365.00 C95.41,365.00 95.00,365.53 95.00,366.18 C95.00,369.02 86.60,384.34 82.91,388.22 C79.31,392.00 78.74,392.29 77.87,390.73 C77.30,389.72 76.81,376.62 76.71,359.74 C76.53,331.60 76.61,330.28 78.78,324.55 C82.01,316.01 82.98,298.99 83.01,250.00 C83.05,177.26 85.22,159.77 96.71,139.67 C102.75,129.10 115.13,116.46 123.65,112.17 C134.48,106.72 164.50,98.73 186.13,95.56 C204.17,92.91 219.33,93.63 250.00,98.57 C265.78,101.12 313.74,107.74 325.88,109.06 C340.17,110.60 375.40,109.74 389.82,107.50 C401.47,105.69 415.38,101.92 421.83,98.82 C426.58,96.54 426.43,96.81 430.94,82.50 C432.76,76.74 435.67,70.17 437.80,67.01 C442.63,59.84 451.81,53.02 462.17,48.89 C470.13,45.72 471.09,45.57 484.00,45.54 C502.58,45.49 510.29,47.99 527.90,59.76 C534.83,64.40 542.29,69.11 544.47,70.23 C552.68,74.44 570.31,73.40 580.87,68.07 C587.17,64.89 597.00,57.52 597.00,55.98 C597.00,55.44 595.49,53.32 593.64,51.25 C589.22,46.31 587.75,43.36 588.51,40.96 C589.26,38.60 588.60,38.69 603.57,38.97 C614.18,39.17 616.11,38.94 619.55,37.10 C621.70,35.95 624.96,34.72 626.79,34.38 C630.22,33.74 645.71,35.31 654.50,37.20 C665.49,39.56 678.53,48.58 686.24,59.14 L 691.42 66.24 L 696.96 65.75 C704.39,65.08 712.49,66.29 718.80,69.01 L 724.00 71.25 L 724.00 79.17 C724.00,88.47 722.65,90.49 714.46,93.49 C703.49,97.50 701.00,98.85 701.00,100.83 C701.00,103.40 708.24,113.14 716.98,122.34 L 724.00 129.73 L 724.00 145.78 L 724.00 161.83 L 720.08 164.94 C712.92,170.60 707.62,172.29 696.51,172.44 C690.88,172.51 685.57,173.08 684.37,173.75 C679.82,176.29 672.99,185.44 666.94,197.11 C663.47,203.81 659.56,210.55 658.26,212.10 C655.54,215.34 647.75,219.93 640.50,222.56 C637.75,223.56 634.46,225.04 633.19,225.84 C628.52,228.80 624.90,239.58 620.54,263.50 C617.75,278.75 615.66,286.82 613.26,291.49 C612.41,293.14 608.25,298.10 604.02,302.50 C599.80,306.90 594.86,312.95 593.06,315.94 C588.67,323.23 570.68,342.35 564.74,346.04 C562.12,347.67 557.84,349.46 555.24,350.04 C547.45,351.74 547.08,351.97 546.07,355.81 C545.54,357.84 544.36,364.90 543.47,371.50 C541.63,385.00 539.20,397.45 535.94,410.00 C533.24,420.40 533.64,431.26 537.39,449.50 C540.47,464.49 540.35,464.17 546.01,472.00 C551.60,479.73 559.00,492.14 559.00,493.78 C559.00,494.42 557.54,495.72 555.75,496.67 C553.23,498.01 549.92,498.40 541.00,498.43 C523.37,498.47 518.23,495.43 515.41,483.27 C514.43,479.06 513.32,477.02 511.05,475.24 L 508.00 472.86 L 507.95 447.18 C507.88,414.42 506.70,395.02 504.40,388.50 L 502.64 383.50 L 501.40 390.50 C500.72,394.35 498.84,401.10 497.21,405.50 C492.78,417.53 491.63,425.44 492.30,439.39 C493.09,455.59 495.42,468.25 498.88,475.00 C500.43,478.02 504.25,485.35 507.35,491.27 C510.46,497.20 513.00,502.89 513.00,503.92 C513.00,507.04 506.27,509.00 495.53,509.00 C483.22,509.00 476.69,507.55 472.50,503.87 C469.19,500.96 466.00,493.84 466.00,489.33 C466.00,487.73 464.78,486.26 462.00,484.50 C458.03,481.99 458.00,481.93 458.01,475.74 C458.01,472.31 458.45,465.67 458.98,461.00 C462.37,431.24 462.01,416.09 457.57,402.04 C456.24,397.81 454.64,390.56 454.02,385.93 C453.41,381.29 451.35,368.49 449.45,357.48 C447.55,346.46 446.00,337.18 446.00,336.85 C446.00,335.90 441.24,334.30 432.00,332.14 C413.67,327.85 405.32,326.64 394.50,326.68 C385.16,326.72 382.23,327.15 375.11,329.54 C370.50,331.09 363.08,334.58 358.61,337.30 C354.15,340.01 349.09,343.09 347.38,344.14 C345.66,345.19 340.71,346.72 336.38,347.53 C327.63,349.18 325.71,350.66 323.98,357.08 C322.22,363.61 319.19,366.25 312.92,366.70 C309.94,366.91 307.03,366.73 306.46,366.29 C305.89,365.86 302.63,362.05 299.21,357.82 C292.41,349.42 285.02,343.97 271.00,337.01 C260.03,331.56 251.87,326.67 245.00,321.46 C233.12,312.44 224.80,309.13 222.12,312.36 C221.50,313.11 220.29,318.39 219.44,324.11 C216.96,340.78 214.60,347.98 206.15,364.70 C200.71,375.47 197.86,387.04 197.26,400.68 C196.63,415.20 197.92,426.58 202.53,447.13 C205.66,461.10 206.22,462.59 210.20,467.65 C225.18,486.67 229.10,495.83 223.25,498.13 C218.79,499.89 200.16,499.54 194.30,497.60 C187.69,495.41 185.98,493.34 184.01,485.22 C182.44,478.76 182.22,478.45 178.44,477.20 C176.27,476.48 174.13,475.52 173.67,475.07 C173.22,474.62 172.73,468.00 172.58,460.37 C172.36,448.74 171.65,443.25 168.21,426.38 C162.15,396.70 155.74,372.00 154.11,372.00 C153.03,372.00 141.33,396.78 138.49,405.07 C134.40,417.01 133.50,425.10 133.56,449.00 L 133.62 471.50 L 141.31 486.86 C145.54,495.31 149.00,503.06 149.00,504.09 C149.00,505.11 147.99,506.61 146.75,507.41 C143.98,509.21 127.43,510.23 120.75,509.02 ZM 122.67 486.47 C126.37,485.08 129.52,483.81 129.68,483.65 C129.84,483.49 129.03,480.69 127.88,477.43 C125.91,471.83 125.82,470.03 126.28,445.00 C126.70,422.74 127.10,417.22 128.81,410.50 C131.68,399.24 142.03,375.36 147.78,366.75 C154.95,356.00 157.35,351.50 161.49,341.00 C167.84,324.88 170.43,320.86 181.37,310.22 C189.75,302.07 193.12,299.55 200.86,295.68 C206.01,293.10 213.44,290.03 217.36,288.86 C221.29,287.70 224.93,286.35 225.46,285.86 C227.23,284.24 223.50,281.97 217.09,280.78 C211.55,279.75 211.02,279.46 212.60,278.31 C214.79,276.70 226.91,276.58 232.50,278.10 C234.70,278.70 243.48,281.91 252.00,285.23 C270.21,292.32 286.04,297.13 301.42,300.25 C311.58,302.31 315.24,302.50 345.50,302.50 C369.35,302.50 380.16,302.13 384.50,301.17 C395.56,298.71 422.07,292.07 422.91,291.55 C423.37,291.27 423.51,281.90 423.23,270.72 C422.72,250.36 423.45,236.54 424.98,237.49 C425.43,237.76 426.31,241.03 426.95,244.75 C427.59,248.46 430.08,259.15 432.48,268.50 C434.89,277.85 437.80,290.35 438.96,296.27 C440.96,306.59 443.54,314.00 445.11,314.00 C445.52,314.00 446.37,311.41 446.99,308.25 C448.88,298.63 449.33,299.03 450.14,311.00 C451.03,324.18 451.89,329.91 456.52,353.50 C458.36,362.85 460.56,375.45 461.42,381.50 C462.28,387.55 464.22,396.10 465.72,400.50 C468.36,408.20 468.46,409.28 468.46,429.00 C468.47,440.27 467.89,454.08 467.19,459.68 L 465.90 469.86 L 468.84 475.18 C470.46,478.11 472.33,482.22 473.00,484.33 C474.34,488.58 473.74,488.53 484.67,485.39 C492.30,483.20 492.73,482.29 490.21,473.70 C489.05,469.74 487.38,461.77 486.51,455.98 C484.49,442.61 481.25,405.26 481.84,402.12 C482.09,400.80 483.60,399.03 485.28,398.12 C492.52,394.20 493.02,393.31 494.57,381.50 C497.67,357.90 507.40,310.96 510.38,305.25 C513.13,299.99 522.13,293.46 525.62,294.19 C526.78,294.43 526.57,295.22 524.58,297.91 C521.73,301.75 515.63,316.96 516.56,317.89 C516.89,318.23 521.97,318.50 527.83,318.50 C538.88,318.50 540.15,318.16 548.59,312.95 L 552.09 310.78 L 551.41 313.64 C549.85,320.16 545.64,324.14 533.67,330.40 C529.05,332.82 528.95,332.95 531.42,333.57 C536.69,334.89 533.04,336.89 522.23,338.59 C519.88,338.96 517.74,339.61 517.48,340.03 C516.48,341.64 521.03,342.34 535.40,342.78 C557.32,343.44 558.75,342.81 575.45,325.08 L 585.27 314.67 L 584.65 307.58 C584.32,303.69 583.74,297.01 583.37,292.75 C582.96,287.99 583.08,285.00 583.67,285.00 C584.20,285.00 585.66,287.48 586.92,290.51 C588.17,293.55 590.12,296.67 591.25,297.46 C593.05,298.72 593.73,298.67 597.02,296.99 C605.41,292.71 608.38,286.10 613.54,260.19 C618.51,235.27 624.28,218.53 628.72,216.15 C629.78,215.58 633.59,214.61 637.19,213.98 C645.16,212.59 648.96,210.39 653.10,204.78 C657.06,199.41 670.49,172.16 669.61,171.28 C667.77,169.44 663.16,173.03 658.49,179.94 C652.34,189.03 651.00,189.71 651.00,183.73 C651.00,175.90 649.54,173.54 641.57,168.58 C637.52,166.05 633.15,162.38 631.70,160.27 C628.55,155.72 624.62,147.04 625.37,146.30 C625.67,146.00 627.69,147.17 629.87,148.90 C637.78,155.17 644.33,157.34 656.75,157.82 C666.89,158.21 668.00,158.08 668.00,156.53 C668.00,155.58 667.07,153.50 665.93,151.90 L 663.86 149.00 L 665.93 149.00 C667.88,149.00 670.30,150.88 679.32,159.39 C681.42,161.38 683.94,163.00 684.91,163.00 C689.15,163.00 706.00,152.55 706.00,149.93 C706.00,149.42 705.07,149.00 703.92,149.00 C701.21,149.00 696.00,143.75 696.00,141.01 C696.00,138.59 697.75,134.87 699.40,133.77 C700.00,133.36 703.99,133.02 708.25,133.02 C712.51,133.01 716.00,132.64 716.00,132.21 C716.00,131.78 713.13,128.28 709.62,124.43 C701.94,116.01 695.67,106.55 693.57,100.19 C692.72,97.61 691.34,91.53 690.50,86.68 C688.79,76.85 685.83,70.25 679.37,61.83 C667.80,46.79 656.81,42.00 633.82,42.00 L 623.00 42.00 L 623.00 46.35 C623.00,48.74 622.50,52.13 621.90,53.87 C620.39,58.20 613.79,62.00 607.79,62.00 C603.93,62.00 602.03,62.83 595.04,67.59 C583.00,75.79 576.03,78.73 565.50,80.03 C552.52,81.64 547.77,80.77 537.69,75.00 C533.00,72.31 526.54,68.12 523.33,65.69 C511.63,56.82 500.55,53.00 486.53,53.00 C469.24,53.00 459.77,56.26 449.99,65.59 C442.29,72.94 439.00,79.44 439.00,87.34 L 439.00 93.29 L 449.50 103.39 C455.28,108.95 460.00,114.31 460.00,115.31 C460.00,117.29 459.42,117.08 454.39,113.31 C452.67,112.02 448.52,109.85 445.16,108.49 C436.03,104.78 428.68,105.11 411.83,109.97 C389.60,116.37 380.34,117.32 346.00,116.71 C320.34,116.25 314.48,115.84 301.00,113.55 C258.90,106.42 221.99,102.00 204.50,102.00 C178.22,102.00 136.63,111.87 122.64,121.43 C115.50,126.31 105.29,138.02 101.59,145.58 C98.16,152.60 93.14,167.73 92.36,173.42 C91.48,179.84 93.49,179.33 95.02,172.75 C97.70,161.17 106.11,147.42 117.59,135.84 C122.98,130.40 124.77,129.16 126.57,129.61 C128.22,130.02 129.89,129.19 132.93,126.44 C135.20,124.40 137.28,122.95 137.55,123.22 C138.99,124.66 134.93,130.41 127.12,138.00 C122.31,142.68 116.94,148.37 115.18,150.65 C104.75,164.21 98.60,190.72 98.60,222.00 C98.61,246.14 101.86,263.21 110.99,287.17 C115.93,300.13 117.05,304.47 119.05,318.50 C119.68,322.90 121.72,330.40 123.58,335.17 C127.44,345.10 128.94,350.92 128.98,356.19 C129.01,361.61 127.51,361.62 125.48,356.23 C124.50,353.63 121.91,347.90 119.71,343.50 L 115.71 335.50 L 110.35 346.40 C105.06,357.17 103.85,362.45 106.15,364.75 C107.02,365.62 107.94,365.40 109.90,363.86 C113.87,360.73 113.76,363.55 109.59,371.81 L 106.08 378.80 L 106.69 397.25 C107.04,407.75 106.75,427.17 106.03,442.31 L 104.75 468.91 L 107.86 473.60 C109.57,476.18 111.26,479.91 111.61,481.89 C112.39,486.21 113.72,489.00 115.01,489.00 C115.53,489.00 118.98,487.86 122.67,486.47 ZM 108.02 331.35 C112.13,319.17 110.69,308.52 101.87,285.68 C99.15,278.63 96.66,271.53 96.33,269.91 C96.01,268.29 95.40,266.75 94.98,266.49 C91.36,264.25 92.67,331.08 96.66,351.93 L 97.34 355.50 L 101.65 346.50 C104.02,341.55 106.89,334.73 108.02,331.35 ZM 709.53 163.55 C714.45,161.50 713.83,160.63 707.99,161.41 C702.06,162.19 700.00,162.89 700.00,164.11 C700.00,165.49 705.68,165.16 709.53,163.55 ZM 718.44 75.90 C717.64,74.61 711.65,71.96 709.78,72.08 C709.08,72.12 710.75,73.24 713.50,74.57 C719.27,77.34 719.34,77.36 718.44,75.90 ZM 140.00 309.40 C140.00,307.47 145.95,300.81 159.11,288.00 C175.94,271.63 175.84,271.84 171.37,261.89 C167.58,253.44 168.17,253.00 183.37,252.99 C194.00,252.98 196.12,252.69 200.50,250.63 C203.25,249.34 206.27,247.42 207.21,246.35 C209.72,243.53 217.67,226.29 219.10,220.57 C220.23,216.02 220.40,215.83 221.26,218.07 C222.72,221.83 222.32,238.67 220.58,247.00 C217.61,261.22 214.68,265.52 194.68,285.00 C184.80,294.62 175.43,304.26 173.86,306.40 L 171.00 310.30 L 171.00 304.85 C171.00,301.85 170.46,298.86 169.80,298.20 C166.69,295.09 158.10,297.90 147.42,305.52 C141.23,309.93 140.00,310.58 140.00,309.40 ZM 443.48 282.74 C443.14,280.95 443.37,278.13 443.99,276.49 C445.29,273.06 450.93,266.84 452.10,267.56 C453.49,268.42 446.59,286.00 444.86,286.00 C444.44,286.00 443.82,284.53 443.48,282.74 ZM 514.19 282.24 C511.28,280.72 506.54,277.41 503.68,274.88 C498.43,270.26 492.28,262.38 493.20,261.47 C493.47,261.20 497.25,262.76 501.60,264.94 C505.94,267.12 512.50,270.28 516.17,271.97 C523.87,275.52 529.31,280.14 528.82,282.72 C528.24,285.79 520.51,285.53 514.19,282.24 ZM 551.86 274.25 C558.63,260.77 565.16,237.16 567.21,218.70 C568.38,208.18 567.63,198.34 564.31,180.50 C563.32,175.19 565.90,179.11 568.55,186.95 C572.80,199.53 575.00,212.74 575.00,225.77 C575.00,243.17 572.54,253.31 565.88,263.36 C562.64,268.25 551.32,280.00 549.84,280.00 C549.36,280.00 550.27,277.41 551.86,274.25 ZM 605.18 103.32 C598.36,99.96 594.12,91.54 594.04,81.25 C594.00,75.42 594.25,74.73 597.71,70.90 C601.32,66.91 601.58,66.80 606.70,67.22 C613.01,67.75 615.59,69.77 617.12,75.41 C619.14,82.85 616.65,99.35 612.95,103.05 C610.60,105.40 609.49,105.44 605.18,103.32 ZM 605.21 88.48 C603.50,82.11 603.70,79.23 606.08,75.37 C608.15,72.02 608.15,72.00 606.15,72.00 C605.05,72.00 603.17,73.24 601.98,74.75 C600.13,77.09 599.86,78.50 600.18,84.18 C600.45,88.94 601.10,91.45 602.45,92.95 C605.37,96.17 606.69,94.02 605.21,88.48 ZM 650.00 95.46 C646.97,94.76 643.10,94.15 641.40,94.10 C637.77,93.98 631.66,90.18 631.19,87.74 C630.80,85.73 636.39,82.01 639.80,82.00 C643.32,82.00 647.48,84.55 650.75,88.72 C653.36,92.05 656.57,97.24 655.79,96.86 C655.63,96.79 653.03,96.15 650.00,95.46 Z" fill="rgba(0,0,0,1)"/>
</g>
</svg>